<svg xmlns="http://www.w3.org/2000/svg" viewBox="0 0 24 24" style="flex-shrink:0" fill="currentColor" aria-hidden="true" class="icon-size-400"><path d="M16.1576 5.68127C14.3576 5.68127 13.5969 6.5402 12.3433 6.5402C11.0581 6.5402 10.0777 5.68752 8.51788 5.68752C6.99109 5.68752 5.36296 6.61966 4.32903 8.20762C2.87724 10.4469 3.12367 14.6643 5.47501 18.2572C6.31609 19.5434 7.43931 20.9858 8.91253 21.0014H8.93931C10.2197 21.0014 10.6 20.163 12.3621 20.1532H12.3889C14.1246 20.1532 14.4728 20.9965 15.7478 20.9965H15.7746C17.2478 20.9809 18.4313 19.3827 19.2724 18.1014C19.8778 17.18 20.1028 16.7175 20.567 15.6751C17.1657 14.384 16.6193 9.56209 19.9831 7.71342C18.9563 6.4277 17.5135 5.68305 16.1532 5.68305L16.1576 5.68127Z"></path><path d="M15.7612 1C14.6898 1.07277 13.4398 1.75491 12.7076 2.64554C12.0433 3.45269 11.4969 4.65001 11.7112 5.81118H11.7969C12.938 5.81118 14.1058 5.12412 14.788 4.24376C15.4451 3.40581 15.9433 2.21831 15.7612 1Z"></path></svg>