<svg xmlns="http://www.w3.org/2000/svg" viewBox="0 0 24 24" style="flex-shrink:0" fill="currentColor" aria-hidden="true" class="icon-size-500 shrink-0"><path fill-rule="evenodd" d="M11.9844 2.00001C6.46874 2.00842 2 6.48234 2 12C2 17.5202 6.47291 21.9958 11.9921 22C11.9948 22 11.9974 22 12 22C12.0026 22 12.0052 22 12.0079 22C17.5271 21.9958 22 17.5202 22 12C22 6.48234 17.5313 2.00842 12.0156 2.00001C12.0104 2 12.0052 2 12 2M14.5276 4.4075C15.4704 5.93335 16.3109 8.13304 16.4722 11H19.9381C19.5526 7.9081 17.4026 5.36414 14.5276 4.4075ZM9.47242 4.4075C8.52956 5.93335 7.6891 8.13304 7.52782 11H4.06189C4.44745 7.9081 6.59741 5.36414 9.47242 4.4075ZM14.5275 19.5925C17.4026 18.6359 19.5525 16.0919 19.9381 13H16.4722C16.3109 15.867 15.4704 18.0667 14.5275 19.5925ZM9.47248 19.5925C8.52961 18.0667 7.68912 15.867 7.52783 13H4.06189C4.44745 16.0919 6.59744 18.6359 9.47248 19.5925ZM12 4.34903C12.9304 5.37036 14.2499 7.55363 14.4687 11H9.5313C9.75014 7.55363 11.0696 5.37036 12 4.34903ZM12 19.6509C11.0696 18.6296 9.75016 16.4463 9.53131 13H14.4687C14.2498 16.4463 12.9304 18.6296 12 19.6509Z" clip-rule="evenodd"></path></svg>