<svg xmlns="http://www.w3.org/2000/svg" fill="none" viewBox="0 0 1000 201" style="flex-shrink:0" class="w-40"><path fill="#000" fill-rule="evenodd" d="M475.148 72.727c22.872 0 37.822 14.633 37.822 40.763s-14.95 40.761-37.822 40.761c-22.723 0-37.673-14.632-37.673-40.761s14.949-40.763 37.673-40.763m0 15.528c-11.362 0-20.332 8.213-20.332 25.235s8.97 25.084 20.332 25.084c11.361-.001 20.48-8.063 20.48-25.084s-9.119-25.234-20.48-25.235M613.186 72.727c22.872 0 37.822 14.633 37.822 40.763s-14.95 40.761-37.822 40.761c-22.724 0-37.673-14.632-37.673-40.761s14.949-40.763 37.673-40.763m0 15.528c-11.362 0-20.332 8.213-20.332 25.235s8.97 25.084 20.332 25.084c11.361-.001 20.48-8.063 20.48-25.084s-9.119-25.234-20.48-25.235M752.135 72.727c22.872 0 37.822 14.633 37.822 40.763s-14.95 40.761-37.822 40.761c-22.724 0-37.673-14.632-37.673-40.761s14.949-40.763 37.673-40.763m0 15.528c-11.362 0-20.332 8.213-20.332 25.235s8.97 25.084 20.332 25.084c11.361-.001 20.48-8.063 20.48-25.084s-9.119-25.234-20.48-25.235M837.797 72.727c22.872 0 37.822 14.633 37.822 40.763s-14.95 40.761-37.822 40.761c-22.724 0-37.673-14.632-37.673-40.761s14.949-40.763 37.673-40.763m0 15.528c-11.362 0-20.332 8.213-20.332 25.235s8.97 25.084 20.332 25.084c11.361-.001 20.48-8.063 20.48-25.084s-9.119-25.234-20.48-25.235M311.531 48.24c21.377 0 35.579 14.633 35.579 34.79 0 20.007-14.202 34.64-35.579 34.64h-23.023v35.088h-18.836V48.24zm-23.023 52.558h21.378c11.511 0 18.388-7.018 18.388-17.769 0-10.9-6.877-17.917-18.388-17.917h-21.378z" clip-rule="evenodd"></path><path fill="#000" d="M375.28 82.88h.747c5.233-6.718 11.661-10.153 20.631-10.153 16.743 0 29.151 11.647 29.151 31.804v48.227h-17.341v-46.436c-.001-11.497-6.279-18.067-16.146-18.067-10.016 0-17.042 7.914-17.042 18.067v46.436h-17.342V48.24h17.342zM548.154 74.22h19.285v16.126h-19.285v38.223c0 4.778 3.289 8.064 8.073 8.064h11.212v16.125h-13.903c-14.501 0-22.723-8.212-22.723-21.799V90.346h-12.408V74.22h12.408l2.392-20.903h14.949zM680.011 83.627h.748c4.485-6.868 11.212-9.407 19.434-9.407h9.268v16.574h-8.222c-12.557 0-20.48 7.764-20.48 19.41v42.554h-17.342V74.22h14.65zM971.745 72.727c16.295 0 28.255 11.945 28.255 31.356v48.675h-17.342v-46.883c0-11.945-6.428-17.62-15.098-17.62-8.073 0-14.801 6.72-14.801 17.62v46.883h-17.341v-46.883c0-11.945-6.578-17.62-15.248-17.62-8.073 0-14.8 6.72-14.8 17.62v46.883h-17.342V74.22h14.65l1.944 9.407h.748c4.783-7.465 11.212-10.9 19.434-10.9 9.568 0 17.939 4.928 21.975 13.14h.748c4.335-8.212 13.903-13.14 24.218-13.14"></path><path fill="url(#iR2alrb7lm-a)" d="M133.327 0H67.921C46.823 0 36.274 0 27.953 3.443A45.25 45.25 0 0 0 3.447 27.918C0 36.23 0 46.765 0 67.838v65.325c0 21.072 0 31.608 3.447 39.919a45.25 45.25 0 0 0 24.506 24.475C36.273 201 46.823 201 67.92 201h65.406c21.098 0 31.647 0 39.968-3.443a45.25 45.25 0 0 0 24.506-24.475c3.447-8.311 3.447-18.847 3.447-39.919V67.837c0-21.072 0-31.608-3.447-39.919a45.26 45.26 0 0 0-24.506-24.475C164.974 0 154.425 0 133.327 0"></path><g clip-path="url(#iR2alrb7lm-b)"><mask id="iR2alrb7lm-c" width="63" height="48" x="103" y="115" maskUnits="userSpaceOnUse" style="mask-type:alpha"><path fill="red" d="M165.297 162.609h-62.186v-31.055a54.6 54.6 0 0 0 19.9 3.727c17.033 0 32.249-7.773 42.286-19.961z"></path></mask><g mask="url(#iR2alrb7lm-c)"><path fill="url(#iR2alrb7lm-d)" d="M45.297 42.757c5.829-5.821 15.278-5.821 21.106 0l94.523 94.406c5.828 5.821 5.828 15.259 0 21.08s-15.279 5.821-21.107 0L45.297 63.838c-5.828-5.822-5.828-15.26 0-21.081"></path></g></g><path fill="#fff" d="M55.85 68.203c-8.242 0-14.924-6.673-14.924-14.906 0-8.232 6.682-14.906 14.924-14.906h67.161c23.354 0 42.286 18.909 42.286 42.234s-18.932 42.234-42.286 42.234H70.775v24.844c0 8.232-6.682 14.906-14.925 14.906s-14.924-6.674-14.924-14.906v-39.75c0-8.232 6.682-14.906 14.924-14.906h67.161c6.869 0 12.437-5.561 12.437-12.422 0-6.86-5.568-12.422-12.437-12.422z"></path><defs><linearGradient id="iR2alrb7lm-a" x1="100.799" x2="100.799" y1="0" y2="201" gradientUnits="userSpaceOnUse"><stop stop-color="#7146ff"></stop><stop offset="0.6" stop-color="#492ffb"></stop><stop offset="1" stop-color="#312482"></stop></linearGradient><linearGradient id="iR2alrb7lm-d" x1="40.926" x2="165.153" y1="45.844" y2="162.762" gradientUnits="userSpaceOnUse"><stop offset="0.75" stop-color="#fff" stop-opacity="0.4"></stop><stop offset="0.95" stop-color="#fff"></stop></linearGradient><clipPath id="iR2alrb7lm-b"><path fill="#fff" d="M40.926 38.391h124.37V162.61H40.927z"></path></clipPath></defs></svg>